{"title":"Milf Lisa Ann Is A Panty Sniffers Delight","uid":6490069,"size":227227786,"categoryP":"porn","categoryS":"movies","magnet":"?xt=urn:btih:eecf0b48a1bfd275aac37ed6d5e9e000f87169cd&amp;dn=Milf+Lisa+Ann+Is+A+Panty+Sniffers+Delight&amp;tr=udp%3A%2F%2Ftracker.openbittorrent.com%3A80&amp;tr=udp%3A%2F%2Fopen.demonii.com%3A1337&amp;tr=udp%3A%2F%2Ftracker.coppersurfer.tk%3A6969&amp;tr=udp%3A%2F%2Fexodus.desync.com%3A6969","seeders":0,"leechers":1,"uploader":"hundetox","files":1,"time":1308848019,"description":"Pictures Galery:\n\n\n\n\n\n\n\nVideo/Audio Info :\n\n\nFormat                           : AVI\nFormat/Info                      : Audio Video Interleave\nFile size                        : 217 MiB\nDuration                         : 58mn 35s\nOverall bit rate                 : 517 Kbps\nWriting application              : Lavf52.94.0\nComment                          : www.freemake.com\n\nVideo\nID                               : 0\nFormat                           : AVC\nFormat/Info                      : Advanced Video Codec\nFormat profile                   : &lt;a class=&quot;__cf_email__&quot; href=&quot;/cdn-cgi/l/email-protection&quot; data-cfemail=&quot;83cee2eaedc3cfb1adb3&quot;&gt;[email&amp;#160;protected]&lt;/a&gt;&lt;script cf-hash='f9e31' type=&quot;text/javascript&quot;&gt;\n/* &lt;![CDATA[ */!function(){try{var t=&quot;currentScript&quot;in document?document.currentScript:function(){for(var t=document.getElementsByTagName(&quot;script&quot;),e=t.length;e--;)if(t[e].getAttribute(&quot;cf-hash&quot;))return t[e]}();if(t&amp;&amp;t.previousSibling){var e,r,n,i,c=t.previousSibling,a=c.getAttribute(&quot;data-cfemail&quot;);if(a){for(e=&quot;&quot;,r=parseInt(a.substr(0,2),16),n=2;a.length-n;n+=2)i=parseInt(a.substr(n,2),16)^r,e+=String.fromCharCode(i);e=document.createTextNode(e),c.parentNode.replaceChild(e,c)}}}catch(u){}}();/* ]]&gt; */&lt;/script&gt;\nFormat settings, CABAC           : Yes\nFormat settings, ReFrames        : 2 frames\nCodec ID                         : H264\nDuration                         : 29mn 17s\nBit rate                         : 893 Kbps\nWidth                            : 320 pixels\nHeight                           : 240 pixels\nDisplay aspect ratio             : 4:3\nFrame rate mode                  : Variable\nFrame rate                       : 29.970 fps\nColor space                      : YUV\nChroma subsampling               : 4:2:0\nBit depth                        : 8 bits\nScan type                        : Progressive\nBits/(Pixel*Frame)               : 0.388\nStream size                      : 187 MiB (86%)\nWriting library                  : x264 core 112 r1834 a51816a\n\nAudio\nID                               : 1\nFormat                           : MPEG Audio\nFormat version                   : Version 2\nFormat profile                   : Layer 3\nMode                             : Joint stereo\nMode extension                   : MS Stereo\nCodec ID                         : 55\nCodec ID/Hint                    : MP3\nDuration                         : 58mn 35s\nBit rate mode                    : Constant\nBit rate                         : 128 Kbps\nChannel(s)                       : 2 channels\nSampling rate                    : 22.05 KHz\nStream size                      : 26.8 MiB (12%)\nAlignment                        : Aligned on interleaves\nInterleave, duration             : 26 ms (0.78 video frame)\nWriting library                  : LAME3.98.4","torrent":{"xt":"urn:btih:eecf0b48a1bfd275aac37ed6d5e9e000f87169cd","amp;dn":"Milf+Lisa+Ann+Is+A+Panty+Sniffers+Delight","amp;tr":["udp%3A%2F%2Ftracker.openbittorrent.com%3A80","udp%3A%2F%2Fopen.demonii.com%3A1337","udp%3A%2F%2Ftracker.coppersurfer.tk%3A6969","udp%3A%2F%2Fexodus.desync.com%3A6969"],"infoHash":"eecf0b48a1bfd275aac37ed6d5e9e000f87169cd","infoHashBuffer":{"type":"Buffer","data":[238,207,11,72,161,191,210,117,170,195,126,214,213,233,224,0,248,113,105,205]},"announce":[],"urlList":[]}}